<svg width="102" height="119" viewBox="0 0 102 119" fill="none" xmlns="http://www.w3.org/2000/svg">
<path fill-rule="evenodd" clip-rule="evenodd" d="M43.8846 94.4686C48.421 94.1454 53.5576 93.3176 58.1086 88.9682C61.6286 85.6038 63.0637 81.7142 63.0637 75.5462C63.0637 70.3126 60.633 65.7377 58.3634 61.8571C56.7117 59.0297 54.7524 56.0273 52.8284 52.2267C50.5969 47.812 50.9015 42.5044 53.4726 39.0658C55.3176 36.6032 57.5052 35.1762 60.3225 34.6154L57.76 23.8754C52.3248 24.6201 48.0315 26.9492 44.6432 30.9871C41.5887 34.6273 40.423 38.8195 40.8564 44.5841C41.2782 50.1352 43.9257 54.4994 46.655 59.1632C48.7313 62.7087 50.8809 66.4379 51.4167 70.3097C51.9146 73.8966 51.1532 76.988 49.0446 79.3675C46.7195 81.9872 43.9724 82.9811 41.29 83.5656L43.8846 94.4686ZM89.0955 81.7825C72.8977 110.202 42.7133 123.262 21.6775 110.958C0.638932 98.6519 -3.28531 65.634 12.9066 37.2203C29.1044 8.80095 59.2859 -4.25911 80.3245 8.0444C101.36 20.3509 105.287 53.3629 89.0955 81.7825ZM82.1078 4.91141C59.7895 -8.13974 27.7717 5.71542 10.5872 35.8616C-6.59162 66.0076 -2.42431 101.034 19.8911 114.086C42.2095 127.143 74.2301 113.284 91.4119 83.1412C108.591 52.9893 104.426 17.9685 82.1078 4.91141ZM84.8725 79.314C70.4729 104.583 43.6327 116.198 24.9252 105.256C6.21779 94.3144 2.72991 64.9576 17.1295 39.6889C31.5291 14.4202 58.3691 2.80494 77.0738 13.7467C95.7813 24.6854 99.272 54.0424 84.8725 79.314Z" fill="white"/>
</svg>
