<?xml version="1.0" standalone="no"?>
<!DOCTYPE svg PUBLIC "-//W3C//DTD SVG 20010904//EN"
 "http://www.w3.org/TR/2001/REC-SVG-20010904/DTD/svg10.dtd">
<svg version="1.0" xmlns="http://www.w3.org/2000/svg"
 width="700.000000pt" height="700.000000pt" viewBox="0 0 700.000000 700.000000"
 preserveAspectRatio="xMidYMid meet">
<metadata>
Created by potrace 1.14, written by Peter Selinger 2001-2017
</metadata>
<g transform="translate(0.000000,700.000000) scale(0.100000,-0.100000)"
fill="#000000" stroke="none">
<path d="M4198 6785 c-2 -2 -46 -5 -98 -6 -86 -1 -123 -5 -278 -25 -70 -9
-255 -51 -352 -80 -543 -163 -1031 -465 -1486 -919 -342 -341 -597 -693 -826
-1135 -163 -316 -323 -755 -382 -1050 -37 -187 -47 -238 -51 -278 -3 -26 -7
-58 -10 -72 -44 -243 -39 -736 11 -1030 167 -994 794 -1705 1654 -1874 174
-34 203 -37 390 -41 1069 -21 2207 710 2910 1870 355 586 577 1257 629 1905 8
102 6 535 -2 575 -3 11 -8 47 -11 80 -20 166 -40 274 -82 433 -113 436 -333
820 -629 1100 -339 322 -788 516 -1245 538 -63 3 -120 7 -127 9 -6 2 -13 2
-15 0z m242 -210 c117 -21 276 -61 362 -91 513 -179 926 -582 1145 -1119 88
-215 157 -473 178 -670 4 -33 9 -71 12 -85 13 -60 11 -578 -3 -695 -35 -292
-96 -568 -182 -826 -71 -209 -113 -311 -219 -529 -401 -818 -1033 -1471 -1773
-1828 -285 -138 -619 -235 -893 -259 -156 -14 -421 -8 -532 12 -98 18 -149 29
-225 50 -642 178 -1136 693 -1345 1400 -40 134 -78 313 -91 430 -3 28 -8 61
-11 75 -13 60 -12 569 1 685 33 294 89 550 176 815 64 197 87 254 176 450 310
684 828 1305 1415 1698 401 268 885 456 1259 489 36 3 67 7 70 10 7 7 436 -4
480 -12z"/>
<path d="M3940 6252 c-25 -1 -92 -9 -150 -18 -1058 -157 -2064 -1098 -2473
-2314 -117 -349 -168 -642 -173 -1005 -4 -324 20 -529 92 -777 212 -738 725
-1212 1428 -1322 102 -16 375 -19 486 -5 416 50 847 230 1238 516 81 60 79 58
222 180 562 481 1008 1239 1174 1993 57 260 71 398 71 695 0 225 -6 311 -29
445 -26 143 -28 152 -58 264 -156 573 -522 1012 -1017 1220 -102 43 -255 89
-335 101 -21 3 -41 7 -45 9 -21 13 -315 25 -431 18z m-44 -877 c12 -49 43
-177 68 -284 26 -106 46 -195 44 -196 -2 -2 -32 -13 -68 -25 -155 -52 -294
-176 -365 -326 -71 -150 -75 -368 -10 -538 31 -84 85 -183 240 -442 159 -265
221 -380 269 -495 90 -221 110 -418 69 -688 -8 -57 -43 -162 -74 -225 -105
-212 -316 -386 -572 -471 -90 -30 -270 -62 -342 -61 l-49 1 -12 50 c-6 28 -37
157 -68 288 -32 131 -56 240 -54 242 2 2 46 17 98 34 125 40 209 90 295 176
115 114 165 240 165 415 0 205 -61 363 -285 745 -189 321 -270 510 -291 678
-3 23 -7 48 -10 56 -2 7 -5 73 -5 146 0 296 83 505 281 704 147 147 335 249
545 296 106 24 106 23 131 -80z"/>
</g>
</svg>
