<svg width="89" height="89" viewBox="0 0 89 89" fill="none" xmlns="http://www.w3.org/2000/svg">
<circle cx="44.5" cy="44.5" r="43.5" stroke="white" stroke-width="2"/>
<path d="M62.3795 47.2317C62.5377 45.62 62.509 44.5332 62.503 44.3619C62.4987 38.3664 60.3387 33.9543 58.5267 31.3083C56.5525 28.4258 54.5779 26.9712 54.4951 26.9107C54.2045 26.699 53.8161 26.6792 53.5053 26.8601C53.1945 27.041 53.0204 27.3886 53.0611 27.7461C53.1793 28.7794 53.2225 31.2283 52.5319 33.1873C51.6929 30.8095 49.8232 28.9171 48.3601 27.436C47.6833 26.7511 47.0992 26.1595 46.7771 25.6845C45.5428 23.865 44.8468 20.6027 44.8401 20.5701C44.7799 20.2816 44.5827 20.0405 44.3119 19.9237C44.0415 19.8069 43.7307 19.8292 43.4794 19.9835C43.3183 20.0823 39.5306 22.4763 39.5306 28.6399C39.5306 32.7678 37.4977 36.405 36.1009 38.4164C35.1766 34.6128 32.298 31.6807 32.1528 31.5348C31.8941 31.2747 31.504 31.1964 31.1649 31.3366C30.8257 31.4764 30.6041 31.8071 30.6041 32.1741C30.6041 37.2928 29.191 39.5293 27.6947 41.8971C26.1552 44.3332 24.5634 46.8526 24.5634 52.2919C24.5634 56.8506 26.4873 60.554 30.1277 63.0011C33.287 65.125 37.6092 66.2475 42.627 66.2475C44.6589 66.2475 46.5502 66.033 48.2978 65.6086C49.5244 66.0227 50.8377 66.2475 52.2027 66.2475C58.9483 66.2475 64.4365 60.7593 64.4365 54.0137C64.4365 51.5068 63.6782 49.174 62.3795 47.2317ZM42.627 64.4351C37.9706 64.4351 33.9982 63.4192 31.1387 61.4967C27.9783 59.372 26.3758 56.275 26.3758 52.2919C26.3758 47.3772 27.7606 45.1856 29.2271 42.8653C30.5525 40.7682 31.9157 38.6103 32.3061 34.5862C33.3107 36.017 34.486 38.1622 34.5667 40.4451C34.5568 40.4808 34.1798 42.9109 34.1798 42.9109C34.1037 43.4054 34.4428 43.8681 34.9377 43.9442C34.984 43.9516 35.0308 43.9552 35.0764 43.9552C35.5161 43.9552 35.9019 43.6345 35.9709 43.1863L36.2842 41.1502C37.1345 40.1803 41.3431 35.0528 41.3431 28.6399C41.3431 25.3981 42.5388 23.436 43.4422 22.4165C43.8004 23.6586 44.4135 25.4293 45.2773 26.7019C45.6929 27.3146 46.3314 27.961 47.0706 28.7097C48.8932 30.5547 51.162 32.8513 51.162 35.7084C51.162 36.0754 51.3832 36.4061 51.7223 36.5459C52.0618 36.6861 52.4519 36.6075 52.7106 36.3477C54.4441 34.605 54.8664 31.737 54.9301 29.7476C55.5592 30.4007 56.3192 31.2842 57.0742 32.395C59.4739 35.9264 60.6906 39.9587 60.6906 44.3793C60.6906 44.3913 60.6909 44.404 60.6913 44.4161C60.692 44.432 60.7012 44.7184 60.6881 45.2097C58.4867 43.0872 55.4944 41.7799 52.2027 41.7799C45.4571 41.7799 39.9689 47.2682 39.9689 54.0137C39.9689 58.3009 42.1859 62.0793 45.5332 64.2645C44.6033 64.3771 43.6348 64.4351 42.627 64.4351ZM52.2027 64.4351C46.4564 64.4351 41.7813 59.76 41.7813 54.0137C41.7813 48.2675 46.4564 43.5924 52.2027 43.5924C57.9489 43.5924 62.6241 48.2675 62.6241 54.0137C62.6241 59.76 57.9489 64.4351 52.2027 64.4351Z" fill="white"/>
<path d="M56.2809 52.5883L50.3509 52.5858L55.654 47.4144C56.0122 47.065 56.0193 46.4912 55.6699 46.1329C55.3205 45.7747 54.7467 45.7673 54.3884 46.1167L47.4921 52.8424C47.228 53.0998 47.1462 53.4913 47.285 53.8325C47.4241 54.1738 47.7558 54.3971 48.1243 54.3975L54.2203 54.3996L50.9519 57.9632L51.0054 57.7671C51.1371 57.2843 50.8525 56.7858 50.3696 56.6542C49.8868 56.5225 49.3887 56.8074 49.257 57.2903L48.2376 61.0263C48.1526 61.3388 48.2648 61.651 48.4684 61.9027C48.759 62.2617 49.2663 62.1611 49.3427 62.1413L53.1467 61.1402C53.6309 61.0128 53.9198 60.5172 53.7927 60.033C53.6653 59.5491 53.169 59.2602 52.6854 59.3873L51.9204 59.5887L56.9481 54.1069C57.191 53.8421 57.2543 53.4587 57.1099 53.1299C56.9655 52.8007 56.6402 52.5883 56.2809 52.5883Z" fill="white"/>
<path d="M34.8343 58.6747C32.0251 58.3834 30.0633 55.9685 30.0633 52.8021C30.0633 49.3518 31.3143 47.1528 31.3252 47.1337C31.5794 46.7025 31.4357 46.1471 31.0042 45.893C30.573 45.6391 30.0176 45.7829 29.7634 46.214C29.7018 46.3192 28.2509 48.8289 28.2509 52.8021C28.2509 54.7179 28.8548 56.5331 29.9514 57.914C31.11 59.3735 32.778 60.284 34.6478 60.4776C34.6796 60.4808 34.7108 60.4825 34.7423 60.4825C35.2007 60.4825 35.594 60.1356 35.6425 59.6698C35.6938 59.1717 35.3324 58.7264 34.8343 58.6747Z" fill="white"/>
<path d="M40.6556 41.3934C41.0754 41.6568 41.6436 41.5233 41.9055 41.1053C42.8542 39.5874 43.621 38.0985 44.1838 36.6783C44.633 35.542 44.952 34.4517 45.1325 33.4361C45.6833 34.0602 46.1233 34.737 46.6086 35.4089C46.907 35.822 47.3644 36.0479 47.8493 35.7686C48.2833 35.5211 48.4348 34.9664 48.1863 34.5317C48.1846 34.5289 48.181 34.5236 48.1764 34.5154C47.8876 34.0259 46.8037 32.3105 44.9994 30.76C44.7336 30.5324 44.3477 30.4782 44.0305 30.6241C43.7105 30.7717 43.5031 31.0952 43.5031 31.4478C43.5049 32.7944 43.1668 34.3296 42.4992 36.0096C41.976 37.33 41.2592 38.7201 40.3685 40.1438C40.103 40.5679 40.2326 41.1279 40.6556 41.3934Z" fill="white"/>
<path d="M39.6134 42.8886C39.4531 42.759 39.2509 42.6875 39.0446 42.6875C38.7692 42.6875 38.5125 42.8107 38.3394 43.0245C38.1872 43.2132 38.1175 43.4489 38.143 43.6896C38.1692 43.9307 38.287 44.1466 38.4754 44.2988C38.6357 44.4284 38.8378 44.4999 39.0435 44.4999C39.3189 44.4999 39.5766 44.3778 39.7494 44.1636C39.9019 43.9753 39.9706 43.7388 39.9451 43.4978C39.92 43.2574 39.8021 43.0411 39.6134 42.8886Z" fill="white"/>
<path d="M55.5538 36.9158C55.5538 36.9158 55.5556 36.9197 55.562 36.9331C55.6073 37.0301 55.8438 37.5438 56.0756 38.199C56.3496 38.9611 56.528 39.7105 56.5542 40.2036C56.5822 40.6822 56.9794 41.0564 57.4576 41.0564C57.4756 41.0564 57.494 41.0564 57.5121 41.0546C58.0105 41.0256 58.3928 40.5962 58.3631 40.0967C58.3015 39.1197 57.9733 38.1176 57.7323 37.4496C57.4887 36.7809 57.2565 36.2779 57.1914 36.1402L57.1886 36.1349C57.0392 35.8213 56.7174 35.6191 56.3705 35.6191C56.2346 35.6191 56.1039 35.6489 55.9797 35.708C55.5294 35.9236 55.3383 36.4645 55.5528 36.9158H55.5538Z" fill="white"/>
</svg>
