<svg width="88" height="88" viewBox="0 0 88 88" fill="none" xmlns="http://www.w3.org/2000/svg">
<circle cx="44" cy="44" r="43" stroke="white" stroke-width="2"/>
<path d="M65.4921 25.4706C65.5373 24.8518 65.3122 24.2435 64.875 23.8032L62.7615 21.6898C61.8122 20.8178 60.3371 20.8763 59.46 21.8208L57.4054 23.8727C55.6621 23.509 53.8452 23.8641 52.3671 24.8579C52.2569 24.8795 52.1529 24.9263 52.0636 24.9944L43.4644 31.8414L31.5569 41.318L31.5524 41.3242L21.6287 49.2224C21.2958 49.4879 21.0919 49.8827 21.068 50.3076C21.044 50.7328 21.2028 51.1477 21.5038 51.4488L24.0822 54.0261L32.5329 62.4768L35.1102 65.0548C35.3904 65.3353 35.7704 65.4927 36.1669 65.493H36.2507C36.676 65.4688 37.0707 65.2645 37.3365 64.9317L45.2409 55.0127L45.2467 55.0082L54.616 43.2358L61.5659 34.5012C61.6302 34.4174 61.673 34.3192 61.6908 34.2148C62.6952 32.7346 63.0564 30.9106 62.6921 29.1594L64.7457 27.1051C65.1866 26.67 65.4521 26.0884 65.4921 25.4706ZM60.5167 22.8775C60.812 22.5194 61.3388 22.4612 61.7048 22.7465L62.2333 23.2751L60.2903 25.2181C59.8897 24.8979 59.4542 24.6243 58.992 24.4026L60.5167 22.8775ZM59.7908 26.7733C61.3836 28.3586 61.7907 30.7813 60.8044 32.8003L57.2846 29.2805L53.7645 25.7614C55.7828 24.7744 58.2055 25.1812 59.7908 26.7733ZM43.4733 36.6102C43.7313 36.9321 44.2013 36.9841 44.5232 36.7265L46 35.551L53.1385 42.6895L44.5974 53.4216L33.1432 41.9677L43.8732 33.4263L44.9365 34.4899L43.5914 35.5599C43.2691 35.8175 43.2161 36.2876 43.4733 36.6102ZM38.8058 60.6972L25.8675 47.7593L31.967 42.9016L43.6611 54.5977L38.8058 60.6972ZM32.0088 59.8403L33.9221 57.927L34.9795 58.9837L33.0655 60.897L32.0088 59.8403ZM29.8953 57.7262L31.8087 55.8128L32.8654 56.8703L30.9521 58.7836L29.8953 57.7262ZM27.7812 55.6127L29.6945 53.6994L30.7519 54.7561L28.8386 56.6694L27.7812 55.6127ZM25.6678 53.4993L27.5811 51.5853L28.6378 52.6444L26.7245 54.5574L25.6678 53.4993ZM24.6911 48.6956L26.522 50.5289L24.609 52.4419L22.5612 50.392L24.6911 48.6956ZM36.1727 64.0036L34.1229 61.9527L36.0362 60.0397L37.8692 61.873L36.1727 64.0036ZM54.0748 41.5154L47.1772 34.6168L52.767 30.1669C52.9852 30.0037 53.0978 29.7348 53.0601 29.4649C53.0225 29.195 52.8409 28.9668 52.5863 28.8696C52.3318 28.7725 52.0445 28.8217 51.8365 28.9979L46.1136 33.5566L45.0494 32.4931L52.4717 26.5848L59.9831 34.093L54.0748 41.5154ZM63.6866 26.046L62.1598 27.5758C61.9388 27.1137 61.6662 26.6782 61.347 26.2776L63.2897 24.3345L63.8183 24.863C63.9503 25.0036 64.0163 25.1939 63.9999 25.3861C63.9801 25.6379 63.8685 25.8732 63.6866 26.0484V26.046Z" fill="white" stroke="white" stroke-width="0.3"/>
<path d="M39.3812 42.7043C39.3918 45.1763 41.3931 47.1775 43.865 47.1882H43.8808C45.0623 47.1892 46.196 46.7191 47.0301 45.882C47.8644 45.0449 48.3304 43.9099 48.3249 42.7283C48.3143 40.2563 46.313 38.2547 43.8411 38.2441H43.8253C42.6437 38.2431 41.5101 38.7132 40.676 39.5503C39.8417 40.3874 39.3757 41.5224 39.3812 42.7043ZM41.7382 40.6012C42.2911 40.0466 43.0423 39.7364 43.8253 39.7387H43.8359C45.4824 39.7493 46.8145 41.0815 46.8251 42.7283C46.8293 43.5127 46.5203 44.2663 45.9665 44.8222C45.4126 45.3778 44.66 45.6898 43.8753 45.6881H43.865C42.2185 45.6775 40.8864 44.3454 40.8758 42.6989C40.869 41.9114 41.1799 41.154 41.7382 40.5984V40.6012Z" fill="white" stroke="white" stroke-width="0.3"/>
<line x1="74.8241" y1="73.377" x2="14.6241" y2="13.177" stroke="white" stroke-width="2"/>
</svg>
