<svg width="88" height="88" viewBox="0 0 88 88" fill="none" xmlns="http://www.w3.org/2000/svg">
<circle cx="44" cy="44" r="43" stroke="white" stroke-width="2"/>
<path d="M49.2077 32.9171V28.4738C49.2077 25.9679 53.326 24.0781 58.7872 24.0781C64.2483 24.0782 68.3667 25.9679 68.3667 28.4738V32.9171C68.3667 35.423 64.2483 37.3128 58.7872 37.3128C53.3259 37.3128 49.2077 35.423 49.2077 32.9171ZM52.7699 34.8958C54.3659 35.5607 56.5029 35.927 58.7872 35.927C61.0716 35.927 63.2086 35.5607 64.8045 34.8958C66.1673 34.328 66.9809 33.5883 66.9809 32.9171V30.8168C65.33 32.0678 62.3436 32.8695 58.7872 32.8695C57.5061 32.8695 56.2648 32.7614 55.0979 32.5482C54.7215 32.4795 54.4721 32.1186 54.5409 31.7421C54.6097 31.3656 54.9708 31.1162 55.347 31.185C56.4319 31.3832 57.5894 31.4837 58.7873 31.4837C61.0717 31.4837 63.2086 31.1175 64.8046 30.4525C66.1673 29.8847 66.9809 29.1449 66.9809 28.4738C66.9809 27.8026 66.1673 27.0629 64.8045 26.4951C63.2085 25.8302 61.0716 25.4639 58.7872 25.4639C56.5029 25.4639 54.3659 25.8301 52.7699 26.4951C51.407 27.0629 50.5934 27.8026 50.5934 28.4738C50.5934 29.1164 51.3522 29.8326 52.6232 30.3898C52.9736 30.5434 53.1332 30.952 52.9796 31.3025C52.8259 31.653 52.4174 31.8126 52.0668 31.659C51.4938 31.4078 51.0008 31.1253 50.5934 30.8179V32.9171C50.5934 33.5883 51.407 34.328 52.7699 34.8958Z" fill="white" stroke="white" stroke-width="0.4"/>
<path d="M25.4625 43.332H29.9058C32.4117 43.332 34.3014 47.4504 34.3014 52.9116C34.3014 58.3728 32.4117 62.4911 29.9058 62.4911H25.4625C22.9566 62.4911 21.0668 58.3728 21.0668 52.9116C21.0668 47.4504 22.9565 43.332 25.4625 43.332ZM25.4625 61.1053C26.1336 61.1053 26.8732 60.2917 27.4411 58.9288C28.1061 57.3328 28.4723 55.1959 28.4723 52.9115C28.4723 51.8224 28.3887 50.7623 28.2239 49.7608C28.1617 49.3832 28.4174 49.0267 28.7951 48.9646C29.1723 48.9026 29.5291 49.1581 29.5912 49.5357C29.7683 50.6114 29.858 51.7472 29.858 52.9116C29.858 56.4679 29.0565 59.4544 27.8054 61.1054H29.9057C30.5769 61.1054 31.3166 60.2917 31.8843 58.9289C32.5493 57.3329 32.9156 55.196 32.9156 52.9116C32.9156 50.6271 32.5494 48.4902 31.8843 46.8942C31.3166 45.5314 30.5769 44.7178 29.9057 44.7178H27.8068C28.1452 45.1669 28.4536 45.7197 28.7239 46.3701C28.8707 46.7235 28.7033 47.129 28.35 47.2759C27.9968 47.4227 27.5911 47.2553 27.4442 46.9019C26.8759 45.5343 26.135 44.7178 25.4624 44.7178C24.7912 44.7178 24.0516 45.5314 23.4837 46.8942C22.8187 48.4902 22.4525 50.6272 22.4525 52.9116C22.4525 55.1959 22.8187 57.3329 23.4838 58.9289C24.0516 60.2917 24.7913 61.1053 25.4625 61.1053Z" fill="white" stroke="white" stroke-width="0.4"/>
<path d="M35.3974 37.6105L38.5392 34.4686C40.3112 32.6966 44.5594 34.2725 48.4211 38.1342C50.1628 39.8759 51.522 41.8065 52.2484 43.5704C53.0541 45.5273 52.9968 47.106 52.0867 48.0161L48.9448 51.158C48.4609 51.6421 47.7876 51.8849 46.9688 51.8849C46.2483 51.8849 45.4152 51.6969 44.4992 51.3197C42.7352 50.5933 40.8045 49.2341 39.0629 47.4924C37.3213 45.7508 35.9621 43.8201 35.2357 42.0562C34.4451 40.1362 34.4876 38.5818 35.3491 37.6643C35.364 37.6457 35.3801 37.6278 35.3974 37.6105ZM36.5171 41.5285C37.1754 43.1273 38.4275 44.8973 40.0428 46.5125C41.6581 48.1279 43.4281 49.3799 45.0268 50.0382C46.392 50.6004 47.4904 50.6527 47.9649 50.1781C48.4395 49.7035 48.3872 48.6052 47.8251 47.24C47.1668 45.6412 45.9146 43.8711 44.2994 42.2559C43.4748 41.4313 42.6087 40.7002 41.7251 40.0829C41.4115 39.8638 41.3348 39.4318 41.554 39.118C41.7732 38.8043 42.2052 38.7278 42.5189 38.947C43.4687 39.6106 44.3974 40.3942 45.2792 41.2761C47.0209 43.0177 48.38 44.9484 49.1064 46.7124C49.3735 47.3609 49.5436 47.9667 49.6214 48.5216L51.1068 47.0362C51.5814 46.5616 51.5291 45.4633 50.9669 44.098C50.3086 42.4993 49.0564 40.7293 47.4412 39.114C45.8259 37.4988 44.0559 36.2466 42.4572 35.5883C41.0921 35.0261 39.9937 34.9738 39.519 35.4484L38.0337 36.9337C38.58 37.0103 39.1756 37.1764 39.8125 37.4363C40.1668 37.5809 40.3369 37.9853 40.1923 38.3396C40.0477 38.6939 39.6435 38.864 39.289 38.7194C37.9367 38.1677 36.8482 38.1195 36.3772 38.5904C35.9026 39.0649 35.9549 40.1634 36.5171 41.5285Z" fill="white" stroke="white" stroke-width="0.4"/>
<line x1="74.8262" y1="73.3751" x2="14.6262" y2="13.1751" stroke="white" stroke-width="2"/>
</svg>
